# xmcd
#
# Track frame offsets:
#	150
#	14480
#	30453
#	43453
#	61247
#	75599
#	96811
#	113919
#	142493
#
# Disc length: 2356 seconds
#
# Revision: 0
# Processed by: cddbd v1.5.1PL2 Copyright (c) Steve Scherf et al.
# Submitted via: dBpowerAMP V4.0
#
DISCID=7b093209
DTITLE=Bajor Michal - Największe przeboje CD2
DYEAR=2005
DGENRE=Ballad
TTITLE0=Femme Fatale - Madame
TTITLE1=Buffo
TTITLE2=W lesie, w lesie
TTITLE3=Nie ma juz nic
TTITLE4=Zapominam
TTITLE5=Moja milosc najwieksza
TTITLE6=Nie chce wiecej
TTITLE7=Edith
TTITLE8=Pali sie
EXTD=
EXTT0=
EXTT1=
EXTT2=
EXTT3=
EXTT4=
EXTT5=
EXTT6=
EXTT7=
EXTT8=
PLAYORDER=
